<svg xmlns="http://www.w3.org/2000/svg" width="500" height="300"><defs><style>path{stroke:#4682b4;stroke-width:2;fill:none}.axis path{fill:none;stroke:gray;stroke-width:1;shape-rendering:crispEdges}.legend{font-weight:700;text-anchor:middle;font-family:Arial}text{font:12px Arial;font-weight:&quot;bold&quot;}</style></defs><g transform="translate(50 30)"><path class="line" id="tagOn" d="M0 129.365l.478-58.606h207.108l.479 58.606h8.609l.478-58.606h35.874l.478 58.606h8.609l.479-58.606h35.873l.478 58.606h8.61l.478-58.606h35.873l.479 58.606h8.609l.479-58.606h35.873l.478 58.606h8.61l.478-58.606H430" stroke="#1f77b4"/><text x="71.667" y="240" class="legend" fill="#1f77b4">On</text><g class="axis" fill="none" font-size="10" font-family="sans-serif" text-anchor="middle"><path class="domain" stroke="currentColor" d="M.5 206v-5.5h430v5.5"/><g class="tick"><path stroke="currentColor" d="M.5 200v6"/><text fill="currentColor" y="9" dy=".71em" transform="translate(.5 200)">0</text></g><g class="tick"><path stroke="currentColor" d="M48.33 200v6"/><text fill="currentColor" y="9" dy=".71em" transform="translate(48.33 200)">1,000</text></g><g class="tick"><path stroke="currentColor" d="M96.162 200v6"/><text fill="currentColor" y="9" dy=".71em" transform="translate(96.162 200)">2,000</text></g><g class="tick"><path stroke="currentColor" d="M143.993 200v6"/><text fill="currentColor" y="9" dy=".71em" transform="translate(143.993 200)">3,000</text></g><g class="tick"><path stroke="currentColor" d="M191.824 200v6"/><text fill="currentColor" y="9" dy=".71em" transform="translate(191.824 200)">4,000</text></g><g class="tick"><path stroke="currentColor" d="M239.655 200v6"/><text fill="currentColor" y="9" dy=".71em" transform="translate(239.655 200)">5,000</text></g><g class="tick"><path stroke="currentColor" d="M287.486 200v6"/><text fill="currentColor" y="9" dy=".71em" transform="translate(287.486 200)">6,000</text></g><g class="tick"><path stroke="currentColor" d="M335.316 200v6"/><text fill="currentColor" y="9" dy=".71em" transform="translate(335.316 200)">7,000</text></g><g class="tick"><path stroke="currentColor" d="M383.147 200v6"/><text fill="currentColor" y="9" dy=".71em" transform="translate(383.147 200)">8,000</text></g></g><g class="axis" fill="none" font-size="10" font-family="sans-serif" text-anchor="end"><path class="domain" stroke="currentColor" d="M-6 200.5H.5V.5H-6"/><g class="tick"><path stroke="currentColor" d="M0 188.47h-6"/><text fill="currentColor" x="-9" dy=".32em" transform="translate(0 188.47)">58</text></g><g class="tick"><path stroke="currentColor" d="M0 165.028h-6"/><text fill="currentColor" x="-9" dy=".32em" transform="translate(0 165.028)">60</text></g><g class="tick"><path stroke="currentColor" d="M0 141.586h-6"/><text fill="currentColor" x="-9" dy=".32em" transform="translate(0 141.586)">62</text></g><g class="tick"><path stroke="currentColor" d="M0 118.143h-6"/><text fill="currentColor" x="-9" dy=".32em" transform="translate(0 118.143)">64</text></g><g class="tick"><path stroke="currentColor" d="M0 94.701h-6"/><text fill="currentColor" x="-9" dy=".32em" transform="translate(0 94.701)">66</text></g><g class="tick"><path stroke="currentColor" d="M0 71.26h-6"/><text fill="currentColor" x="-9" dy=".32em" transform="translate(0 71.26)">68</text></g><g class="tick"><path stroke="currentColor" d="M0 47.817h-6"/><text fill="currentColor" x="-9" dy=".32em" transform="translate(0 47.817)">70</text></g><g class="tick"><path stroke="currentColor" d="M0 24.375h-6"/><text fill="currentColor" x="-9" dy=".32em" transform="translate(0 24.375)">72</text></g><g class="tick"><path stroke="currentColor" d="M0 .933h-6"/><text fill="currentColor" x="-9" dy=".32em" transform="translate(0 .933)">74</text></g></g><path class="line" id="tagTemperature" d="M0 164.528l.478.325.479-.49.478-.487.478-.487.479-.485.478-.484.478-.482.478-.481.479-.48.478-.479.478-.477.479-.476.478-.474.478-.474.479-.471.478-.471.478-.47.479-.467.478-.467.478-.465.478-.464.479-.463.478-.462.478-.46.479-.459.478-.458.478-.456.479-.455.478-.454.478-.453.479-.451.478-.45.478-.449.479-.448.478-.446.478-.445.478-.444.479-.443.478-.441.478-.44.479-.44.478-.437.478-.437.479-.435.478-.434.478-.433.479-.432.478-.43.478-.43.478-.428.479-.427.478-.425.478-.425.479-.423.478-.422.478-.422.479-.42.478-.418.478-.418.479-.416.478-.415.478-.414.478-.413.479-.412.478-.41.478-.41.479-.408.478-.408.478-.406.479-.405.478-.404.478-.402.479-.402.478-.4.478-.4.479-.398.478-.397.478-.396.478-.395.479-.394.478-.393.478-.391.479-.391.478-.39.478-.388.479-.387.478-.386.478-.386.479-.384.478-.383.478-.382.478-.38.479-.38.478-.38.478-.377.479-.377.478-.375.478-.375.479-.374.478-.372.478-.372.479-.37.478-.37.478-.368.478-.367.479-.367.478-.365.478-.364.479-.364.478-.362.478-.361.479-.36.478-.36.478-.358.479-.358.478-.356.478-.355.478-.355.479-.353.478-.352.478-.352.479-.35.478-.35.478-.348.479-.348.478-.346.478-.346.479-.344.478-.344.478-.343.479-.342.478-.34.478-.34.478-.34.479-.337.478-.337.478-.336.479-.335.478-.335.478-.333.479-.332.478-.332.478-.33.479-.33.478-.329.478-.327.478-.327.479-.326.478-.325.478-.325.479-.323.478-.322.478-.322.479-.32.478-.32.478-.319.479-.318.478-.317.478-.316.478-.315.479-.314.478-.314.478-.313.479-.311.478-.311.478-.31.479-.31.478-.308.478-.307.479-.307.478-.306.478-.305.478-.304.479-.303.478-.302.478-.302.479-.3.478-.3.478-.3.479-.298.478-.297.478-.297.479-.295.478-.295.478-.294.479-.294.478-.292.478-.292.478-.29.479-.29.478-.29.478-.288.479-.288.478-.287.478-.286.479-.285.478-.285.478-.283.479-.283.478-.282.478-.281.478-.28.479-.28.478-.28.478-.278.479-.277.478-.277.478-.276.479-.275.478-.274.478-.274.479-.273.478-.272.478-.27.478-.271.479-.27.478-.27.478-.268.479-.267.478-.267.478-.266.479-.265.478-.265.478-.264.479-.263.478-.262.478-.262.479-.26.478-.261.478-.26.478-.258.479-.258.478-.258.478-.256.479-.256.478-.255.478-.255.479-.254.478-.253.478-.252.479-.252.478-.25.478-.251.478-.25.479-.249.478-.248.478-.247.479-.247.478-.246.478-.246.479-.244.478-.245.478-.243.479-.243.478-.242.478-.241.478-.24.479-.24.478-.24.478-.239.479-.238.478-.237.478-.237.479-.236.478-.236.478-.234.479-.235.478-.233.478-.233.478-.232.479-.231.478-.231.478-.23.479-.23.478-.23.478-.227.479-.228.478-.227.478-.227.479-.225.478-.226.478-.224.479-.224.478-.223.478-.223.478-.222.479-.222.478-.22.478-.22.479-.22.478-.22.478-.218.479-.217.478-.218.478-.216.479-.216.478-.215.478-.215.478-.214.479-.214.478-.213.478-.212.479-.212.478-.211.478-.211.479-.21.478-.21.478-.208.479-.209.478-.207.478-.208.478-.206.479-.206.478-.206.478-.204.479-.205.478-.203.478-.204.479-.202.478-.202.478-.202.479-.2.478-.2.478-.2.479-.2.478-.199.478-.198.478-.197.479-.197.478-.197.478-.196.479-.195.478-.195.478-.194.479-.194.478-.193.478-.193.479-.192.478-.192.478-.19.478-.191.479-.19.478-.19.478-.189.479-.188.478-.188.478-.188.479-.186.478-.187.478-.186.479-.185.478-.185.478-.184.478-.184.479-.183.478-.183.478-.182.479-.182.478-.181.478-.181.479-.18.478-.18.478-.18.479-.178.478-.178.478-.178.478-.177.479-.177.478-.176.478-.176.479-.175.478-.175.478-.175.479-.173.478-.174.478-.173.479-.172.478-.172.478-.171.479-.171.478-.17.478-.17.478-.17.479-.17.478-.168.478-.168.479-.168.478-.167.478-.167.479-.166.478-.166.478-.165.479-.165.478-.165.478-.164.478-.163.479-.163.478-.163.478-.162.479-.162.478-.161.478-.16.479-.161.478-.16.478-.16.479-.159.478-.158.478-.158.478-.158.479-.157.478-.157.478-.157.479-.156.478-.155.478-.155.479-.155.478-.154.478-.154.479-.153.478-.153.478-.153.478-.152.479-.152.478-.151.478-.15.479-.151.478-.15.478-.15.479-.15.478-.148.478-.148.479-.148.478-.148.478-.147.479-.147.478.668.478.666.478.664.479.662.478.66.478.659.479.656.478.655.478.653.479.651.478.65.478.647.479.646.478.644.478.642.478.64.479.639.478.637.478.635.479-.181.478-.18.478-.18.479-.179.478-.179.478-.178.479-.178.478-.177.478-.176.478-.177.479-.175.478-.176.478-.174.479-.175.478-.173.478-.174.479-.172.478-.173.478-.172.479-.171.478-.17.478-.171.479-.17.478-.17.478-.169.478-.168.479-.168.478-.168.478-.167.479-.167.478-.166.478-.166.479-.165.478-.165.478-.164.479-.164.478-.164.478-.163.478-.162.479-.162.478-.162.478-.161.479-.16.478-.161.478-.16.479-.16.478-.158.478-.159.479-.158.478-.158.478-.157.478-.157.479-.156.478-.156.478-.155.479-.156.478-.154.478-.154.479-.154.478-.153.478-.153.479-.153.478-.152.478-.152.478-.15.479-.152.478-.15.478-.15.479-.15.478-.148.478-.15.479-.148.478-.147.478-.148.479-.147.478-.147.478.668.479.666.478.664.478.662.478.66.479.659.478.657.478.654.479.653.478.652.478.65.479.647.478.645.478.644.479.643.478.64.478.639.478.637.479.635.478-.18.478-.181.479-.18.478-.179.478-.178.479-.178.478-.178.478-.177.479-.177.478-.176.478-.176.478-.175.479-.175.478-.174.478-.174.479-.173.478-.173.478-.172.479-.172.478-.17.478-.172.479-.17.478-.17.478-.17.478-.168.479-.169.478-.168.478-.167.479-.168.478-.166.478-.166.479-.166.478-.165.478-.165.479-.164.478-.164.478-.164.479-.163.478-.162.478-.162.478-.162.479-.16.478-.162.478-.16.479-.16.478-.16.478-.158.479-.159.478-.158.478-.157.479-.157.478-.157.478-.156.478-.156.479-.156.478-.155.478-.154.479-.154.478-.154.478-.153.479-.153.478-.153.478-.152.479-.151.478-.151.478-.151.478-.15.479-.15.478-.15.478-.149.479-.149.478-.148.478-.148.479-.147.478-.147.478-.147.479.668.478.666.478.664.479.662.478.66.478.66.478.656.479.655.478.653.478.651.479.65.478.647.478.646.479.644.478.642.478.64.479.64.478.636.478.635.478-.18.479-.18.478-.18.478-.179.479-.178.478-.179.478-.177.479-.177.478-.177.478-.176.479-.176.478-.175.478-.174.478-.175.479-.173.478-.173.478-.173.479-.172.478-.172.478-.171.479-.171.478-.17.478-.17.479-.17.478-.169.478-.168.478-.168.479-.168.478-.167.478-.166.479-.166.478-.166.478-.165.479-.165.478-.164.478-.164.479-.164.478-.162.478-.163.479-.162.478-.161.478-.162.478-.16.479-.16.478-.16.478-.16.479-.158.478-.159.478-.158.479-.157.478-.158.478-.156.479-.157.478-.155.478-.156.478-.155.479-.154.478-.154.478-.154.479-.153.478-.153.478-.153.479-.152.478-.151.478-.151.479-.15.478-.151.478-.15.478-.15.479-.149.478-.148.478-.148.479-.148.478-.148.478-.147.479-.146.478.668.478.666.479.664.478.662.478.66.479.659.478.657.478.655.478.653.479.65.478.65.478.648.479.646.478.644.478.642.479.64.478.64.478.636.479.636.478-.18.478-.181.478-.18.479-.179.478-.178.478-.178.479-.178.478-.177.478-.176.479-.176.478-.176.478-.175.479-.175.478-.174.478-.174.478-.173.479-.172.478-.173.478-.171.479-.172.478-.17.478-.17.479-.17.478-.17.478-.169.479-.168.478-.168.478-.168.478-.167.479-.166.478-.166.478-.166.479-.165.478-.165.478-.164.479-.164.478-.163.478-.163.479-.162.478-.162.478-.162.479-.161.478-.16.478-.16.478-.16.479-.16.478-.159.478-.158.479-.158.478-.158.478-.157.479-.157.478-.156.478-.156.479-.155.478-.155.478-.154.478-.154.479-.154.478-.153.478-.153.479-.152.478-.152.478-.152.479-.151.478-.15.478-.151.479-.15.478-.15.478-.148.478-.149.479-.148.478-.148.478-.147.479-.147.478-.147.478.668.479.666.478.664.478.662.479.66.478.66.478.656.478.655.479.653.478.652.478.65.479.647.478.646.478.644.479.642.478.64.478.64.479.636.478.636.478-.18.479-.181.478-.18.478-.179.478-.178.479-.178.478-.178.478-.177.479-.176.478-.176.478-.176.479-.175.478-.174.478-.175.479-.173.478-.173.478-.173.478-.172.479-.172.478-.171.478-.17.479-.171.478-.17.478-.17.479-.168.478-.169.478-.167.479-.168.478-.167.478-.166.478-.167.479-.165.478-.165.478-.165.479-.164.478-.164.478-.163.479-.163.478-.163.478-.162.479-.161.478-.161.478-.16.479-.16.478-.16.478-.16.478-.159.479-.158.478-.158.478-.158.479-.157.478-.156.478-.157.479-.155.478-.156.478-.155.479-.154.478-.154.478-.154.478-.153.479-.153.478-.152.478-.152.479-.151.478-.152" stroke="#ff7f0e"/><text x="215" y="240" class="legend" fill="#ff7f0e">Temperature</text><g class="axis" fill="none" font-size="10" font-family="sans-serif" text-anchor="middle"><path class="domain" stroke="currentColor" d="M.5 206v-5.5h430v5.5"/><g class="tick"><path stroke="currentColor" d="M.5 200v6"/><text fill="currentColor" y="9" dy=".71em" transform="translate(.5 200)">0</text></g><g class="tick"><path stroke="currentColor" d="M48.33 200v6"/><text fill="currentColor" y="9" dy=".71em" transform="translate(48.33 200)">1,000</text></g><g class="tick"><path stroke="currentColor" d="M96.162 200v6"/><text fill="currentColor" y="9" dy=".71em" transform="translate(96.162 200)">2,000</text></g><g class="tick"><path stroke="currentColor" d="M143.993 200v6"/><text fill="currentColor" y="9" dy=".71em" transform="translate(143.993 200)">3,000</text></g><g class="tick"><path stroke="currentColor" d="M191.824 200v6"/><text fill="currentColor" y="9" dy=".71em" transform="translate(191.824 200)">4,000</text></g><g class="tick"><path stroke="currentColor" d="M239.655 200v6"/><text fill="currentColor" y="9" dy=".71em" transform="translate(239.655 200)">5,000</text></g><g class="tick"><path stroke="currentColor" d="M287.486 200v6"/><text fill="currentColor" y="9" dy=".71em" transform="translate(287.486 200)">6,000</text></g><g class="tick"><path stroke="currentColor" d="M335.316 200v6"/><text fill="currentColor" y="9" dy=".71em" transform="translate(335.316 200)">7,000</text></g><g class="tick"><path stroke="currentColor" d="M383.147 200v6"/><text fill="currentColor" y="9" dy=".71em" transform="translate(383.147 200)">8,000</text></g></g><g class="axis" fill="none" font-size="10" font-family="sans-serif" text-anchor="end"><path class="domain" stroke="currentColor" d="M-6 200.5H.5V.5H-6"/><g class="tick"><path stroke="currentColor" d="M0 188.47h-6"/><text fill="currentColor" x="-9" dy=".32em" transform="translate(0 188.47)">58</text></g><g class="tick"><path stroke="currentColor" d="M0 165.028h-6"/><text fill="currentColor" x="-9" dy=".32em" transform="translate(0 165.028)">60</text></g><g class="tick"><path stroke="currentColor" d="M0 141.586h-6"/><text fill="currentColor" x="-9" dy=".32em" transform="translate(0 141.586)">62</text></g><g class="tick"><path stroke="currentColor" d="M0 118.143h-6"/><text fill="currentColor" x="-9" dy=".32em" transform="translate(0 118.143)">64</text></g><g class="tick"><path stroke="currentColor" d="M0 94.701h-6"/><text fill="currentColor" x="-9" dy=".32em" transform="translate(0 94.701)">66</text></g><g class="tick"><path stroke="currentColor" d="M0 71.26h-6"/><text fill="currentColor" x="-9" dy=".32em" transform="translate(0 71.26)">68</text></g><g class="tick"><path stroke="currentColor" d="M0 47.817h-6"/><text fill="currentColor" x="-9" dy=".32em" transform="translate(0 47.817)">70</text></g><g class="tick"><path stroke="currentColor" d="M0 24.375h-6"/><text fill="currentColor" x="-9" dy=".32em" transform="translate(0 24.375)">72</text></g><g class="tick"><path stroke="currentColor" d="M0 .933h-6"/><text fill="currentColor" x="-9" dy=".32em" transform="translate(0 .933)">74</text></g></g><path class="line" id="tagSetpoint" d="M0 47.317h430" stroke="#2ca02c"/><text x="358.333" y="240" class="legend" fill="#2ca02c">Setpoint</text><g class="axis" fill="none" font-size="10" font-family="sans-serif" text-anchor="middle"><path class="domain" stroke="currentColor" d="M.5 206v-5.5h430v5.5"/><g class="tick"><path stroke="currentColor" d="M.5 200v6"/><text fill="currentColor" y="9" dy=".71em" transform="translate(.5 200)">0</text></g><g class="tick"><path stroke="currentColor" d="M48.33 200v6"/><text fill="currentColor" y="9" dy=".71em" transform="translate(48.33 200)">1,000</text></g><g class="tick"><path stroke="currentColor" d="M96.162 200v6"/><text fill="currentColor" y="9" dy=".71em" transform="translate(96.162 200)">2,000</text></g><g class="tick"><path stroke="currentColor" d="M143.993 200v6"/><text fill="currentColor" y="9" dy=".71em" transform="translate(143.993 200)">3,000</text></g><g class="tick"><path stroke="currentColor" d="M191.824 200v6"/><text fill="currentColor" y="9" dy=".71em" transform="translate(191.824 200)">4,000</text></g><g class="tick"><path stroke="currentColor" d="M239.655 200v6"/><text fill="currentColor" y="9" dy=".71em" transform="translate(239.655 200)">5,000</text></g><g class="tick"><path stroke="currentColor" d="M287.486 200v6"/><text fill="currentColor" y="9" dy=".71em" transform="translate(287.486 200)">6,000</text></g><g class="tick"><path stroke="currentColor" d="M335.316 200v6"/><text fill="currentColor" y="9" dy=".71em" transform="translate(335.316 200)">7,000</text></g><g class="tick"><path stroke="currentColor" d="M383.147 200v6"/><text fill="currentColor" y="9" dy=".71em" transform="translate(383.147 200)">8,000</text></g></g><g class="axis" fill="none" font-size="10" font-family="sans-serif" text-anchor="end"><path class="domain" stroke="currentColor" d="M-6 200.5H.5V.5H-6"/><g class="tick"><path stroke="currentColor" d="M0 188.47h-6"/><text fill="currentColor" x="-9" dy=".32em" transform="translate(0 188.47)">58</text></g><g class="tick"><path stroke="currentColor" d="M0 165.028h-6"/><text fill="currentColor" x="-9" dy=".32em" transform="translate(0 165.028)">60</text></g><g class="tick"><path stroke="currentColor" d="M0 141.586h-6"/><text fill="currentColor" x="-9" dy=".32em" transform="translate(0 141.586)">62</text></g><g class="tick"><path stroke="currentColor" d="M0 118.143h-6"/><text fill="currentColor" x="-9" dy=".32em" transform="translate(0 118.143)">64</text></g><g class="tick"><path stroke="currentColor" d="M0 94.701h-6"/><text fill="currentColor" x="-9" dy=".32em" transform="translate(0 94.701)">66</text></g><g class="tick"><path stroke="currentColor" d="M0 71.26h-6"/><text fill="currentColor" x="-9" dy=".32em" transform="translate(0 71.26)">68</text></g><g class="tick"><path stroke="currentColor" d="M0 47.817h-6"/><text fill="currentColor" x="-9" dy=".32em" transform="translate(0 47.817)">70</text></g><g class="tick"><path stroke="currentColor" d="M0 24.375h-6"/><text fill="currentColor" x="-9" dy=".32em" transform="translate(0 24.375)">72</text></g><g class="tick"><path stroke="currentColor" d="M0 .933h-6"/><text fill="currentColor" x="-9" dy=".32em" transform="translate(0 .933)">74</text></g></g></g></svg>